<?xml version="1.0" encoding="utf-8"?>
<!-- Generator: Adobe Illustrator 24.1.0, SVG Export Plug-In . SVG Version: 6.00 Build 0)  -->
<svg version="1.1" id="Layer_1" xmlns="http://www.w3.org/2000/svg" xmlns:xlink="http://www.w3.org/1999/xlink" x="0px" y="0px"
	 viewBox="0 0 100 125" style="enable-background:new 0 0 100 125;" xml:space="preserve">
<path d="M93,49.1c-2.4-0.5-4.5-1.5-5.1-4.4c-0.5-2.9,1.8-4,4.1-5.3c0.7-0.4,1.2-0.8,1.4-1.2c-0.2-0.7-0.4-1.4-0.6-2.1
	c-0.5-0.3-1.1-0.5-2.1-0.4c-2.5,0.3-4.8,0-6.2-2.6c-1.4-2.6,0.5-4.3,2.2-6.3c0.5-0.6,0.8-1.1,0.9-1.4c-0.4-0.6-0.9-1.3-1.3-1.9
	c-0.5-0.1-1.2,0-2,0.3c-2.3,1-4.6,1.5-6.7-0.6c-2.1-2-0.9-4.3,0.2-6.7c0.3-0.6,0.4-1.2,0.4-1.5c-0.6-0.5-1.3-1-2-1.5
	c-0.5,0.1-1,0.4-1.6,0.9c-1.8,1.7-3.9,2.8-6.5,1.5s-2.2-3.8-1.9-6.4c0.1-0.7,0-1.2,0-1.5c-0.8-0.3-1.6-0.6-2.4-0.9
	c-0.4,0.2-0.8,0.7-1.2,1.3c-1.2,2.1-2.8,3.9-5.7,3.5S53.7,9,53.1,6.5c-0.1-0.6-0.3-1.1-0.5-1.4C51.8,5,50.9,5,50,5l0,0
	c-0.3,0.4-0.6,0.9-0.7,1.6c-0.5,2.4-1.5,4.5-4.4,5.1c-2.9,0.5-4-1.8-5.3-4.1c-0.3-0.5-0.6-0.9-0.9-1.2c-0.9,0.2-1.7,0.5-2.5,0.7
	c-0.2,0.4-0.3,1-0.2,1.7c0.3,2.5,0,4.8-2.6,6.2s-4.3-0.5-6.3-2.2c-0.5-0.4-0.9-0.7-1.2-0.8c-0.7,0.5-1.5,1-2.2,1.5
	c0,0.5,0.1,1,0.4,1.7c1,2.3,1.5,4.6-0.6,6.7c-2,2.1-4.3,0.9-6.7-0.2c-0.6-0.3-1.1-0.4-1.4-0.4c-0.6,0.7-1.1,1.3-1.6,2
	c0.1,0.5,0.4,1,0.9,1.5c1.7,1.8,2.8,3.9,1.5,6.5s-3.8,2.2-6.4,1.9c-0.7-0.1-1.2,0-1.6,0c-0.3,0.8-0.6,1.5-0.9,2.3
	C7.6,36.1,8,36.6,8.7,37c2.1,1.2,3.9,2.8,3.5,5.7s-2.9,3.2-5.5,3.8c-0.7,0.2-1.2,0.4-1.6,0.6C5,47.9,5,48.7,5,49.5
	c0.4,0.4,0.9,0.7,1.8,0.9c2.4,0.5,4.5,1.5,5.1,4.4c0.5,2.9-1.8,4-4.1,5.3c-0.7,0.4-1.1,0.8-1.4,1.1c0.2,0.7,0.4,1.4,0.6,2.1
	c0.5,0.3,1.1,0.5,2.1,0.3c2.5-0.3,4.8,0,6.2,2.6s-0.5,4.3-2.2,6.3c-0.6,0.7-0.9,1.2-1,1.6c0.4,0.6,0.7,1.1,1.1,1.7
	c0.5,0.1,1.3,0.1,2.2-0.3c2.3-1,4.6-1.5,6.7,0.6c2.1,2,0.9,4.3-0.2,6.7c-0.4,0.9-0.5,1.5-0.5,2c0.5,0.4,1,0.8,1.5,1.1
	c0.6,0,1.3-0.2,2.1-1c1.8-1.7,3.9-2.8,6.5-1.5s2.2,3.8,1.9,6.4c-0.1,1.1,0,1.7,0.2,2.1c0.5,0.2,1,0.4,1.6,0.6
	c0.6-0.1,1.3-0.6,1.9-1.6c1.2-2.1,2.8-3.9,5.7-3.5s3.2,2.9,3.8,5.5c0.2,1.1,0.6,1.7,0.9,2c0.5,0,1,0,1.6,0.1
	c0.5-0.3,1.1-0.9,1.3-2.1c0.5-2.4,1.5-4.5,4.4-5.1c2.9-0.5,4,1.8,5.3,4.1c0.6,1,1.1,1.4,1.5,1.6c0.5-0.1,1-0.3,1.4-0.4
	c0.4-0.4,0.8-1.2,0.7-2.5c-0.3-2.5,0-4.8,2.6-6.2c2.6-1.4,4.3,0.5,6.3,2.2c0.8,0.8,1.5,1,1.9,1.1c0.4-0.3,0.8-0.6,1.3-0.9
	c0.2-0.5,0.4-1.4-0.2-2.5c-1-2.3-1.5-4.6,0.6-6.7c2-2.1,4.3-0.9,6.7,0.2c1,0.4,1.7,0.5,2.1,0.4c0.3-0.4,0.7-0.9,1-1.3
	c0-0.6-0.1-1.4-1-2.3c-1.7-1.8-2.8-3.9-1.5-6.5s3.8-2.2,6.4-1.9c1,0.1,1.7,0,2.1-0.2c0.2-0.6,0.4-1.1,0.6-1.7
	c-0.2-0.6-0.6-1.2-1.6-1.8c-2.1-1.2-3.9-2.8-3.5-5.7s2.9-3.2,5.5-3.8c0.9-0.2,1.5-0.5,1.8-0.7c0-0.7,0-1.3,0.1-2
	C94.7,49.8,94.1,49.3,93,49.1z M27.1,68.5c-1.8,0.3-4.1,0.1-5.6-2.7c-2.7-4.5-4.6-12.7-4.1-15.4s1.9-3.7,4.3-4.1s4.1,1.9,4.6,5.5
	c0.5,3.4,1.7,7.7,3.3,10.5C31.1,65.1,28.9,68.2,27.1,68.5z M25.2,33.7c-0.8-1.6-1.4-3.8,0.8-6.2c3.4-3.9,10.7-8.3,13.4-8.6
	c2.7-0.3,4.2,0.6,5.2,2.8c1.1,2.1-0.6,4.5-3.8,6c-3.1,1.5-6.8,4-9,6.4C29.7,36.4,26.1,35.3,25.2,33.7z M60.7,77.5
	c-0.3,1.8-1.1,3.9-4.3,4.5c-5.1,1.2-13.5,0.4-15.9-0.9s-3-3-2.6-5.3c0.4-2.4,3.1-3.3,6.6-2.6c3.4,0.6,7.8,0.8,11,0.1
	C58.8,72.7,61,75.7,60.7,77.5z M50,68c-9.9,0-18-8.1-18-18s8.1-18,18-18s18,8.1,18,18S59.9,68,50,68z M68.3,34.2
	c-2.4-2.5-5.9-5.2-8.8-6.6c-2.9-1.4-3-5.2-1.7-6.5c1.3-1.3,3.2-2.5,6.1-1.1c4.8,2.1,11.2,7.6,12.3,10.1c1.2,2.5,0.7,4.1-1,5.8
	C73.6,37.6,70.8,36.8,68.3,34.2z M82.7,53.8c-0.5,5.2-3.8,13-5.8,14.9c-2,1.9-3.7,1.9-5.9,0.8c-2.1-1.1-2.2-4-0.5-7.1
	c1.6-3,3.1-7.2,3.5-10.4s4-4.4,5.6-3.6C81.4,49.1,83.1,50.6,82.7,53.8z"/>
</svg>
