<svg xmlns="http://www.w3.org/2000/svg" xmlns:xlink="http://www.w3.org/1999/xlink" version="1.1" x="0px" y="0px" viewBox="0 0 100 125" style="enable-background:new 0 0 100 100;" xml:space="preserve"><path d="M98,53.9v-7.6l-8.3-2c-0.2-1.5-0.4-2.9-0.7-4.3l7.1-5.1l-2.9-7.1l-8.6,1.5c-0.7-1.2-1.5-2.3-2.3-3.4l4.6-7.4  l-5.4-5.4l-7.4,4.6c-1.2-0.9-2.4-1.7-3.6-2.4l1.4-8.6l-7.1-2.9l-5,7.1c-1.3-0.3-2.7-0.4-4.1-0.6l-2-8.3h-7.6l-2,8.3  c-1.5,0.2-2.9,0.4-4.3,0.7l-5.1-7.1l-7.1,2.9l1.5,8.6c-1.2,0.7-2.3,1.5-3.4,2.3l-7.4-4.6l-5.4,5.4l4.6,7.4c-0.9,1.2-1.7,2.4-2.4,3.6  l-8.6-1.4l-2.9,7.1l7.1,5c-0.3,1.3-0.8,2.7-1,4.1l-8.7,2v7.6l8.7,2c0.2,1.5,0.6,2.9,1,4.3l-7,5.1l3,7.1l8.6-1.5  c0.7,1.2,1.5,2.3,2.3,3.4l-4.6,7.4l5.4,5.4l7.4-4.6c1.2,0.9,2.4,1.7,3.6,2.4L28,93.5l7.1,2.9l5-7.1c1.3,0.3,2.7,0.8,4.1,1l2,8.7h7.6  l2-8.7c1.5-0.2,2.9-0.6,4.3-1l5.1,7l7.1-3l-1.5-8.6c1.2-0.7,2.3-1.5,3.4-2.3l7.4,4.6l5.4-5.4l-4.6-7.4c0.9-1.2,1.7-2.4,2.4-3.6  l8.6,1.4l2.9-7.1l-7.1-5c0.3-1.3,0.4-2.7,0.6-4.1L98,53.9z M73.5,55.2c-0.6,3.2-1.9,6.2-3.7,8.9c1.8,1.9,1.8,4.8,0,6.7  c-1.8,1.8-4.8,1.9-6.7,0c-2.6,1.8-5.7,3.1-8.9,3.7c0,2.6-2.1,4.7-4.7,4.7s-4.7-2.1-4.7-4.7c-3.2-0.6-6.2-1.9-8.9-3.7  c-1.9,1.8-4.8,1.8-6.7,0c-1.8-1.8-1.9-4.8,0-6.7c-1.8-2.6-3.1-5.7-3.7-8.9c-2.6,0-4.7-2.1-4.7-4.7s2.1-4.7,4.7-4.7  c0.6-3.2,1.9-6.2,3.7-8.9c-1.8-1.9-1.8-4.8,0-6.7c1.8-1.8,4.8-1.9,6.7,0c2.6-1.8,5.7-3.1,8.9-3.7c0-2.6,2.1-4.7,4.7-4.7  s4.7,2.1,4.7,4.7c3.2,0.6,6.2,1.9,8.9,3.7c1.9-1.8,4.8-1.8,6.7,0c1.8,1.8,1.9,4.8,0,6.7c1.8,2.6,3.1,5.7,3.7,8.9  c2.6,0,4.7,2.1,4.7,4.7S76.1,55.2,73.5,55.2z"/><path d="M68.8,50.5c0-2.3,1.6-4.2,3.8-4.7c-0.6-3-1.8-5.9-3.5-8.3c-1.8,1.2-4.3,1-6-0.6c-1.6-1.6-1.8-4.1-0.6-6  c-2.5-1.7-5.3-2.9-8.3-3.5c-0.4,2.2-2.4,3.8-4.7,3.8s-4.2-1.6-4.7-3.8c-3,0.6-5.9,1.8-8.3,3.5c1.2,1.8,1,4.3-0.6,6  c-1.6,1.6-4.1,1.8-6,0.6c-1.7,2.5-2.9,5.3-3.5,8.3c2.2,0.4,3.8,2.4,3.8,4.7s-1.6,4.2-3.8,4.7c0.6,3,1.8,5.9,3.5,8.3  c1.8-1.2,4.3-1,6,0.6c1.6,1.6,1.8,4.1,0.6,6c2.5,1.7,5.3,2.9,8.3,3.5c0.4-2.2,2.4-3.8,4.7-3.8s4.2,1.6,4.7,3.8  c3-0.6,5.9-1.8,8.3-3.5c-1.2-1.8-1-4.3,0.6-6c1.6-1.6,4.1-1.8,6-0.6c1.7-2.5,2.9-5.3,3.5-8.3C70.4,54.7,68.8,52.8,68.8,50.5z   M49.5,62.2c-6.8,0-12.2-5.5-12.2-12.2s5.5-12.2,12.2-12.2S61.8,43.2,61.8,50S56.3,62.2,49.5,62.2z"/><text x="0" y="115" fill="#000000" font-size="5px" font-weight="bold" font-family="'Helvetica Neue', Helvetica, Arial-Unicode, Arial, Sans-serif">Created by jayson lim</text><text x="0" y="120" fill="#000000" font-size="5px" font-weight="bold" font-family="'Helvetica Neue', Helvetica, Arial-Unicode, Arial, Sans-serif">from the Noun Project</text></svg>