<svg xmlns="http://www.w3.org/2000/svg" xmlns:xlink="http://www.w3.org/1999/xlink" viewBox="0 0 100 125" version="1.1" xml:space="preserve" style="" x="0px" y="0px" fill-rule="evenodd" clip-rule="evenodd" stroke-linejoin="round" stroke-miterlimit="1.41421"><g transform="matrix(1.9721,0,0,1.9952,-72.6849,-77.2885)"><path d="M68.801,43.391C64.516,42.007 59.904,42.007 55.62,43.391L57.024,47.738C56.163,48.016 55.327,48.363 54.522,48.775L52.441,44.707C48.432,46.759 45.171,50.02 43.12,54.028L47.188,56.109C46.776,56.914 46.429,57.751 46.151,58.611L41.803,57.207C40.42,61.491 40.42,66.103 41.803,70.388L46.151,68.984C46.429,69.844 46.776,70.68 47.188,71.485L43.12,73.567C45.171,77.575 48.432,80.836 52.441,82.887L54.522,78.82C55.327,79.232 56.163,79.578 57.024,79.856L55.62,84.204C59.904,85.588 64.516,85.588 68.801,84.204L67.396,79.856C68.257,79.578 69.093,79.232 69.898,78.82L71.98,82.887C75.988,80.836 79.249,77.575 81.3,73.567L77.233,71.485C77.645,70.68 77.991,69.844 78.269,68.984L82.617,70.388C84.001,66.103 84.001,61.491 82.617,57.207L78.269,58.611C77.991,57.751 77.645,56.914 77.233,56.109L81.3,54.028C79.249,50.02 75.988,46.759 71.98,44.707L69.898,48.775C69.093,48.363 68.257,48.016 67.396,47.738L68.801,43.391ZM62.21,57.799C65.521,57.799 68.209,60.487 68.209,63.797C68.209,67.108 65.521,69.796 62.21,69.796C58.899,69.796 56.212,67.108 56.212,63.797C56.212,60.487 58.899,57.799 62.21,57.799Z" style="" fill="black"/></g><text x="0" y="115" fill="#000000" font-size="5px" font-weight="bold" font-family="'Helvetica Neue', Helvetica, Arial-Unicode, Arial, Sans-serif">Created by Veronika Krpciarova</text><text x="0" y="120" fill="#000000" font-size="5px" font-weight="bold" font-family="'Helvetica Neue', Helvetica, Arial-Unicode, Arial, Sans-serif">from the Noun Project</text></svg>